<mxfile host="app.diagrams.net" modified="2024-03-30T14:16:27.962Z" agent="Mozilla/5.0 (X11; Ubuntu; Linux x86_64; rv:123.0) Gecko/20100101 Firefox/123.0" etag="OIGYcw5RC80K9vMyXWL_" version="24.2.1" type="device">
  <diagram name="Page-1" id="UaGfCTJyHfjFnLvQukhS">
    <mxGraphModel dx="853" dy="497" grid="1" gridSize="10" guides="1" tooltips="1" connect="1" arrows="1" fold="1" page="1" pageScale="1" pageWidth="850" pageHeight="1100" math="0" shadow="0">
      <root>
        <mxCell id="0" />
        <mxCell id="1" parent="0" />
        <mxCell id="Z4rL8gLc2oiBXMOgCM4w-1" value="" style="verticalAlign=top;align=left;spacingTop=8;spacingLeft=2;spacingRight=12;shape=cube;size=10;direction=south;fontStyle=4;html=1;whiteSpace=wrap;" vertex="1" parent="1">
          <mxGeometry x="310" y="130" width="180" height="120" as="geometry" />
        </mxCell>
        <mxCell id="Z4rL8gLc2oiBXMOgCM4w-2" value="" style="verticalAlign=top;align=left;spacingTop=8;spacingLeft=2;spacingRight=12;shape=cube;size=10;direction=south;fontStyle=4;html=1;whiteSpace=wrap;" vertex="1" parent="1">
          <mxGeometry x="310" y="400" width="220" height="190" as="geometry" />
        </mxCell>
        <mxCell id="Z4rL8gLc2oiBXMOgCM4w-4" value="" style="endArrow=none;html=1;rounded=0;entryX=1.017;entryY=0.489;entryDx=0;entryDy=0;entryPerimeter=0;" edge="1" parent="1" target="Z4rL8gLc2oiBXMOgCM4w-1">
          <mxGeometry width="50" height="50" relative="1" as="geometry">
            <mxPoint x="400" y="400" as="sourcePoint" />
            <mxPoint x="400" y="260" as="targetPoint" />
          </mxGeometry>
        </mxCell>
        <mxCell id="Z4rL8gLc2oiBXMOgCM4w-5" value="TCP/IP" style="text;html=1;align=center;verticalAlign=middle;whiteSpace=wrap;rounded=0;" vertex="1" parent="1">
          <mxGeometry x="395" y="310" width="60" height="30" as="geometry" />
        </mxCell>
        <mxCell id="Z4rL8gLc2oiBXMOgCM4w-6" value="" style="verticalAlign=top;align=left;spacingTop=8;spacingLeft=2;spacingRight=12;shape=cube;size=10;direction=south;fontStyle=4;html=1;whiteSpace=wrap;" vertex="1" parent="1">
          <mxGeometry x="600" y="140" width="180" height="145" as="geometry" />
        </mxCell>
        <mxCell id="Z4rL8gLc2oiBXMOgCM4w-7" value="" style="endArrow=none;html=1;rounded=0;exitX=0.517;exitY=-0.017;exitDx=0;exitDy=0;exitPerimeter=0;entryX=0.991;entryY=0.642;entryDx=0;entryDy=0;entryPerimeter=0;" edge="1" parent="1" source="Z4rL8gLc2oiBXMOgCM4w-2" target="Z4rL8gLc2oiBXMOgCM4w-6">
          <mxGeometry width="50" height="50" relative="1" as="geometry">
            <mxPoint x="400" y="440" as="sourcePoint" />
            <mxPoint x="660" y="290" as="targetPoint" />
            <Array as="points" />
          </mxGeometry>
        </mxCell>
        <mxCell id="Z4rL8gLc2oiBXMOgCM4w-8" value="TCP/IP" style="text;html=1;align=center;verticalAlign=middle;whiteSpace=wrap;rounded=0;" vertex="1" parent="1">
          <mxGeometry x="560" y="350" width="60" height="30" as="geometry" />
        </mxCell>
        <mxCell id="Z4rL8gLc2oiBXMOgCM4w-9" value="&amp;lt;&amp;lt;device&amp;gt;&amp;gt;" style="text;html=1;align=center;verticalAlign=middle;whiteSpace=wrap;rounded=0;" vertex="1" parent="1">
          <mxGeometry x="660" y="150" width="60" height="30" as="geometry" />
        </mxCell>
        <mxCell id="Z4rL8gLc2oiBXMOgCM4w-11" value="&amp;lt;&amp;lt;device&amp;gt;&amp;gt;" style="text;html=1;align=center;verticalAlign=middle;whiteSpace=wrap;rounded=0;" vertex="1" parent="1">
          <mxGeometry x="360" y="135" width="60" height="30" as="geometry" />
        </mxCell>
        <mxCell id="Z4rL8gLc2oiBXMOgCM4w-13" value="Web Server" style="text;html=1;align=center;verticalAlign=middle;whiteSpace=wrap;rounded=0;" vertex="1" parent="1">
          <mxGeometry x="350" y="150" width="80" height="30" as="geometry" />
        </mxCell>
        <mxCell id="Z4rL8gLc2oiBXMOgCM4w-15" value="Database Server" style="text;html=1;align=center;verticalAlign=middle;whiteSpace=wrap;rounded=0;" vertex="1" parent="1">
          <mxGeometry x="650" y="170" width="80" height="30" as="geometry" />
        </mxCell>
        <mxCell id="Z4rL8gLc2oiBXMOgCM4w-18" value="" style="html=1;whiteSpace=wrap;" vertex="1" parent="1">
          <mxGeometry x="635" y="210" width="110" height="50" as="geometry" />
        </mxCell>
        <mxCell id="Z4rL8gLc2oiBXMOgCM4w-19" value="" style="html=1;whiteSpace=wrap;" vertex="1" parent="1">
          <mxGeometry x="345" y="180" width="110" height="50" as="geometry" />
        </mxCell>
        <mxCell id="Z4rL8gLc2oiBXMOgCM4w-20" value="&amp;lt;&amp;lt;artifact&amp;gt;&amp;gt;" style="text;html=1;align=center;verticalAlign=middle;whiteSpace=wrap;rounded=0;" vertex="1" parent="1">
          <mxGeometry x="660" y="205" width="60" height="30" as="geometry" />
        </mxCell>
        <mxCell id="Z4rL8gLc2oiBXMOgCM4w-21" value="&amp;lt;&amp;lt;artifact&amp;gt;&amp;gt;" style="text;html=1;align=center;verticalAlign=middle;whiteSpace=wrap;rounded=0;" vertex="1" parent="1">
          <mxGeometry x="370" y="180" width="60" height="30" as="geometry" />
        </mxCell>
        <mxCell id="Z4rL8gLc2oiBXMOgCM4w-22" value="Web App" style="text;html=1;align=center;verticalAlign=middle;whiteSpace=wrap;rounded=0;" vertex="1" parent="1">
          <mxGeometry x="370" y="197.5" width="60" height="30" as="geometry" />
        </mxCell>
        <mxCell id="Z4rL8gLc2oiBXMOgCM4w-23" value="My SQL" style="text;html=1;align=center;verticalAlign=middle;whiteSpace=wrap;rounded=0;" vertex="1" parent="1">
          <mxGeometry x="660" y="227.5" width="60" height="30" as="geometry" />
        </mxCell>
        <mxCell id="Z4rL8gLc2oiBXMOgCM4w-24" value="&amp;lt;&amp;lt;device&amp;gt;&amp;gt;" style="text;html=1;align=center;verticalAlign=middle;whiteSpace=wrap;rounded=0;" vertex="1" parent="1">
          <mxGeometry x="380" y="410" width="60" height="30" as="geometry" />
        </mxCell>
        <mxCell id="Z4rL8gLc2oiBXMOgCM4w-25" value="User Client" style="text;html=1;align=center;verticalAlign=middle;whiteSpace=wrap;rounded=0;" vertex="1" parent="1">
          <mxGeometry x="375" y="430" width="80" height="30" as="geometry" />
        </mxCell>
        <mxCell id="Z4rL8gLc2oiBXMOgCM4w-26" value="" style="verticalAlign=top;align=left;spacingTop=8;spacingLeft=2;spacingRight=12;shape=cube;size=10;direction=south;fontStyle=4;html=1;whiteSpace=wrap;" vertex="1" parent="1">
          <mxGeometry x="340" y="460" width="160" height="110" as="geometry" />
        </mxCell>
        <mxCell id="Z4rL8gLc2oiBXMOgCM4w-27" value="&amp;lt;&amp;lt;device&amp;gt;&amp;gt;" style="text;html=1;align=center;verticalAlign=middle;whiteSpace=wrap;rounded=0;" vertex="1" parent="1">
          <mxGeometry x="385" y="470" width="60" height="30" as="geometry" />
        </mxCell>
        <mxCell id="Z4rL8gLc2oiBXMOgCM4w-28" value="Browser" style="text;html=1;align=center;verticalAlign=middle;whiteSpace=wrap;rounded=0;" vertex="1" parent="1">
          <mxGeometry x="385" y="490" width="60" height="30" as="geometry" />
        </mxCell>
        <mxCell id="Z4rL8gLc2oiBXMOgCM4w-29" value="" style="html=1;whiteSpace=wrap;" vertex="1" parent="1">
          <mxGeometry x="352.5" y="520" width="127.5" height="40" as="geometry" />
        </mxCell>
        <mxCell id="Z4rL8gLc2oiBXMOgCM4w-30" value="&amp;lt;&amp;lt;artifact&amp;gt;&amp;gt;" style="text;html=1;align=center;verticalAlign=middle;whiteSpace=wrap;rounded=0;" vertex="1" parent="1">
          <mxGeometry x="385" y="520" width="60" height="30" as="geometry" />
        </mxCell>
        <mxCell id="Z4rL8gLc2oiBXMOgCM4w-31" value="HTML 5" style="text;html=1;align=center;verticalAlign=middle;whiteSpace=wrap;rounded=0;" vertex="1" parent="1">
          <mxGeometry x="385" y="540" width="60" height="20" as="geometry" />
        </mxCell>
      </root>
    </mxGraphModel>
  </diagram>
</mxfile>
